<mxfile host="Electron" modified="2023-06-03T18:55:33.921Z" agent="Mozilla/5.0 (Windows NT 10.0; Win64; x64) AppleWebKit/537.36 (KHTML, like Gecko) draw.io/21.2.8 Chrome/112.0.5615.165 Electron/24.2.0 Safari/537.36" etag="L-1II73mRTG0BMsv07Uj" version="21.2.8" type="device">
  <diagram name="Page-1" id="aZyr1jQkzboElXyHemkR">
    <mxGraphModel dx="2508" dy="1920" grid="1" gridSize="10" guides="1" tooltips="1" connect="1" arrows="1" fold="1" page="1" pageScale="1" pageWidth="850" pageHeight="1100" math="0" shadow="0">
      <root>
        <mxCell id="0" />
        <mxCell id="1" parent="0" />
        <mxCell id="7nFrm3i6Shsvs_v0Jg4z-20" value="Candidatos_x_Puesto" style="shape=table;startSize=30;container=1;collapsible=1;childLayout=tableLayout;fixedRows=1;rowLines=0;fontStyle=1;align=center;resizeLast=1;html=1;whiteSpace=wrap;" vertex="1" parent="1">
          <mxGeometry x="-480" y="-170" width="200" height="130" as="geometry" />
        </mxCell>
        <mxCell id="7nFrm3i6Shsvs_v0Jg4z-43" value="" style="shape=tableRow;horizontal=0;startSize=0;swimlaneHead=0;swimlaneBody=0;fillColor=none;collapsible=0;dropTarget=0;points=[[0,0.5],[1,0.5]];portConstraint=eastwest;top=0;left=0;right=0;bottom=0;html=1;" vertex="1" parent="7nFrm3i6Shsvs_v0Jg4z-20">
          <mxGeometry y="30" width="200" height="30" as="geometry" />
        </mxCell>
        <mxCell id="7nFrm3i6Shsvs_v0Jg4z-44" value="PK" style="shape=partialRectangle;connectable=0;fillColor=none;top=0;left=0;bottom=0;right=0;fontStyle=1;overflow=hidden;html=1;whiteSpace=wrap;" vertex="1" parent="7nFrm3i6Shsvs_v0Jg4z-43">
          <mxGeometry width="60" height="30" as="geometry">
            <mxRectangle width="60" height="30" as="alternateBounds" />
          </mxGeometry>
        </mxCell>
        <mxCell id="7nFrm3i6Shsvs_v0Jg4z-45" value="IdCandidatoPuesto" style="shape=partialRectangle;connectable=0;fillColor=none;top=0;left=0;bottom=0;right=0;align=left;spacingLeft=6;fontStyle=5;overflow=hidden;html=1;whiteSpace=wrap;" vertex="1" parent="7nFrm3i6Shsvs_v0Jg4z-43">
          <mxGeometry x="60" width="140" height="30" as="geometry">
            <mxRectangle width="140" height="30" as="alternateBounds" />
          </mxGeometry>
        </mxCell>
        <mxCell id="7nFrm3i6Shsvs_v0Jg4z-24" value="" style="shape=tableRow;horizontal=0;startSize=0;swimlaneHead=0;swimlaneBody=0;fillColor=none;collapsible=0;dropTarget=0;points=[[0,0.5],[1,0.5]];portConstraint=eastwest;top=0;left=0;right=0;bottom=1;html=1;" vertex="1" parent="7nFrm3i6Shsvs_v0Jg4z-20">
          <mxGeometry y="60" width="200" height="30" as="geometry" />
        </mxCell>
        <mxCell id="7nFrm3i6Shsvs_v0Jg4z-25" value="FK" style="shape=partialRectangle;connectable=0;fillColor=none;top=0;left=0;bottom=0;right=0;fontStyle=1;overflow=hidden;html=1;whiteSpace=wrap;" vertex="1" parent="7nFrm3i6Shsvs_v0Jg4z-24">
          <mxGeometry width="60" height="30" as="geometry">
            <mxRectangle width="60" height="30" as="alternateBounds" />
          </mxGeometry>
        </mxCell>
        <mxCell id="7nFrm3i6Shsvs_v0Jg4z-26" value="IdCandidato" style="shape=partialRectangle;connectable=0;fillColor=none;top=0;left=0;bottom=0;right=0;align=left;spacingLeft=6;fontStyle=5;overflow=hidden;html=1;whiteSpace=wrap;" vertex="1" parent="7nFrm3i6Shsvs_v0Jg4z-24">
          <mxGeometry x="60" width="140" height="30" as="geometry">
            <mxRectangle width="140" height="30" as="alternateBounds" />
          </mxGeometry>
        </mxCell>
        <mxCell id="7nFrm3i6Shsvs_v0Jg4z-21" value="" style="shape=tableRow;horizontal=0;startSize=0;swimlaneHead=0;swimlaneBody=0;fillColor=none;collapsible=0;dropTarget=0;points=[[0,0.5],[1,0.5]];portConstraint=eastwest;top=0;left=0;right=0;bottom=0;html=1;" vertex="1" parent="7nFrm3i6Shsvs_v0Jg4z-20">
          <mxGeometry y="90" width="200" height="30" as="geometry" />
        </mxCell>
        <mxCell id="7nFrm3i6Shsvs_v0Jg4z-22" value="FK" style="shape=partialRectangle;connectable=0;fillColor=none;top=0;left=0;bottom=0;right=0;fontStyle=1;overflow=hidden;html=1;whiteSpace=wrap;" vertex="1" parent="7nFrm3i6Shsvs_v0Jg4z-21">
          <mxGeometry width="60" height="30" as="geometry">
            <mxRectangle width="60" height="30" as="alternateBounds" />
          </mxGeometry>
        </mxCell>
        <mxCell id="7nFrm3i6Shsvs_v0Jg4z-23" value="IdPuesto" style="shape=partialRectangle;connectable=0;fillColor=none;top=0;left=0;bottom=0;right=0;align=left;spacingLeft=6;fontStyle=5;overflow=hidden;html=1;whiteSpace=wrap;" vertex="1" parent="7nFrm3i6Shsvs_v0Jg4z-21">
          <mxGeometry x="60" width="140" height="30" as="geometry">
            <mxRectangle width="140" height="30" as="alternateBounds" />
          </mxGeometry>
        </mxCell>
        <mxCell id="7nFrm3i6Shsvs_v0Jg4z-36" value="Candidatos_x_Partido" style="shape=table;startSize=30;container=1;collapsible=1;childLayout=tableLayout;fixedRows=1;rowLines=0;fontStyle=1;align=center;resizeLast=1;html=1;whiteSpace=wrap;" vertex="1" parent="1">
          <mxGeometry x="-400" y="-330" width="200" height="130" as="geometry" />
        </mxCell>
        <mxCell id="7nFrm3i6Shsvs_v0Jg4z-66" value="" style="shape=tableRow;horizontal=0;startSize=0;swimlaneHead=0;swimlaneBody=0;fillColor=none;collapsible=0;dropTarget=0;points=[[0,0.5],[1,0.5]];portConstraint=eastwest;top=0;left=0;right=0;bottom=0;html=1;" vertex="1" parent="7nFrm3i6Shsvs_v0Jg4z-36">
          <mxGeometry y="30" width="200" height="30" as="geometry" />
        </mxCell>
        <mxCell id="7nFrm3i6Shsvs_v0Jg4z-67" value="PK" style="shape=partialRectangle;connectable=0;fillColor=none;top=0;left=0;bottom=0;right=0;fontStyle=1;overflow=hidden;html=1;whiteSpace=wrap;" vertex="1" parent="7nFrm3i6Shsvs_v0Jg4z-66">
          <mxGeometry width="60" height="30" as="geometry">
            <mxRectangle width="60" height="30" as="alternateBounds" />
          </mxGeometry>
        </mxCell>
        <mxCell id="7nFrm3i6Shsvs_v0Jg4z-68" value="IdCandidatoPartido" style="shape=partialRectangle;connectable=0;fillColor=none;top=0;left=0;bottom=0;right=0;align=left;spacingLeft=6;fontStyle=5;overflow=hidden;html=1;whiteSpace=wrap;" vertex="1" parent="7nFrm3i6Shsvs_v0Jg4z-66">
          <mxGeometry x="60" width="140" height="30" as="geometry">
            <mxRectangle width="140" height="30" as="alternateBounds" />
          </mxGeometry>
        </mxCell>
        <mxCell id="7nFrm3i6Shsvs_v0Jg4z-37" value="" style="shape=tableRow;horizontal=0;startSize=0;swimlaneHead=0;swimlaneBody=0;fillColor=none;collapsible=0;dropTarget=0;points=[[0,0.5],[1,0.5]];portConstraint=eastwest;top=0;left=0;right=0;bottom=0;html=1;" vertex="1" parent="7nFrm3i6Shsvs_v0Jg4z-36">
          <mxGeometry y="60" width="200" height="30" as="geometry" />
        </mxCell>
        <mxCell id="7nFrm3i6Shsvs_v0Jg4z-38" value="FK1" style="shape=partialRectangle;connectable=0;fillColor=none;top=0;left=0;bottom=0;right=0;fontStyle=1;overflow=hidden;html=1;whiteSpace=wrap;" vertex="1" parent="7nFrm3i6Shsvs_v0Jg4z-37">
          <mxGeometry width="60" height="30" as="geometry">
            <mxRectangle width="60" height="30" as="alternateBounds" />
          </mxGeometry>
        </mxCell>
        <mxCell id="7nFrm3i6Shsvs_v0Jg4z-39" value="IdPartido" style="shape=partialRectangle;connectable=0;fillColor=none;top=0;left=0;bottom=0;right=0;align=left;spacingLeft=6;fontStyle=5;overflow=hidden;html=1;whiteSpace=wrap;" vertex="1" parent="7nFrm3i6Shsvs_v0Jg4z-37">
          <mxGeometry x="60" width="140" height="30" as="geometry">
            <mxRectangle width="140" height="30" as="alternateBounds" />
          </mxGeometry>
        </mxCell>
        <mxCell id="7nFrm3i6Shsvs_v0Jg4z-40" value="" style="shape=tableRow;horizontal=0;startSize=0;swimlaneHead=0;swimlaneBody=0;fillColor=none;collapsible=0;dropTarget=0;points=[[0,0.5],[1,0.5]];portConstraint=eastwest;top=0;left=0;right=0;bottom=1;html=1;" vertex="1" parent="7nFrm3i6Shsvs_v0Jg4z-36">
          <mxGeometry y="90" width="200" height="30" as="geometry" />
        </mxCell>
        <mxCell id="7nFrm3i6Shsvs_v0Jg4z-41" value="FK2" style="shape=partialRectangle;connectable=0;fillColor=none;top=0;left=0;bottom=0;right=0;fontStyle=1;overflow=hidden;html=1;whiteSpace=wrap;" vertex="1" parent="7nFrm3i6Shsvs_v0Jg4z-40">
          <mxGeometry width="60" height="30" as="geometry">
            <mxRectangle width="60" height="30" as="alternateBounds" />
          </mxGeometry>
        </mxCell>
        <mxCell id="7nFrm3i6Shsvs_v0Jg4z-42" value="IdCandidatoPuesto" style="shape=partialRectangle;connectable=0;fillColor=none;top=0;left=0;bottom=0;right=0;align=left;spacingLeft=6;fontStyle=5;overflow=hidden;html=1;whiteSpace=wrap;" vertex="1" parent="7nFrm3i6Shsvs_v0Jg4z-40">
          <mxGeometry x="60" width="140" height="30" as="geometry">
            <mxRectangle width="140" height="30" as="alternateBounds" />
          </mxGeometry>
        </mxCell>
        <mxCell id="7nFrm3i6Shsvs_v0Jg4z-52" value="Departamento" style="swimlane;fontStyle=0;childLayout=stackLayout;horizontal=1;startSize=30;horizontalStack=0;resizeParent=1;resizeParentMax=0;resizeLast=0;collapsible=1;marginBottom=0;whiteSpace=wrap;html=1;" vertex="1" parent="1">
          <mxGeometry x="-800" y="250" width="200" height="90" as="geometry" />
        </mxCell>
        <mxCell id="7nFrm3i6Shsvs_v0Jg4z-53" value="IdDepartamento" style="text;strokeColor=none;fillColor=none;align=left;verticalAlign=middle;spacingLeft=4;spacingRight=4;overflow=hidden;points=[[0,0.5],[1,0.5]];portConstraint=eastwest;rotatable=0;whiteSpace=wrap;html=1;" vertex="1" parent="7nFrm3i6Shsvs_v0Jg4z-52">
          <mxGeometry y="30" width="200" height="30" as="geometry" />
        </mxCell>
        <mxCell id="7nFrm3i6Shsvs_v0Jg4z-54" value="Nombre" style="text;strokeColor=none;fillColor=none;align=left;verticalAlign=middle;spacingLeft=4;spacingRight=4;overflow=hidden;points=[[0,0.5],[1,0.5]];portConstraint=eastwest;rotatable=0;whiteSpace=wrap;html=1;" vertex="1" parent="7nFrm3i6Shsvs_v0Jg4z-52">
          <mxGeometry y="60" width="200" height="30" as="geometry" />
        </mxCell>
        <mxCell id="7nFrm3i6Shsvs_v0Jg4z-56" value="Municipio" style="swimlane;fontStyle=0;childLayout=stackLayout;horizontal=1;startSize=30;horizontalStack=0;resizeParent=1;resizeParentMax=0;resizeLast=0;collapsible=1;marginBottom=0;whiteSpace=wrap;html=1;" vertex="1" parent="1">
          <mxGeometry x="-800" y="380" width="200" height="90" as="geometry" />
        </mxCell>
        <mxCell id="7nFrm3i6Shsvs_v0Jg4z-57" value="IdMunicipio" style="text;strokeColor=none;fillColor=none;align=left;verticalAlign=middle;spacingLeft=4;spacingRight=4;overflow=hidden;points=[[0,0.5],[1,0.5]];portConstraint=eastwest;rotatable=0;whiteSpace=wrap;html=1;" vertex="1" parent="7nFrm3i6Shsvs_v0Jg4z-56">
          <mxGeometry y="30" width="200" height="30" as="geometry" />
        </mxCell>
        <mxCell id="7nFrm3i6Shsvs_v0Jg4z-58" value="Nombre" style="text;strokeColor=none;fillColor=none;align=left;verticalAlign=middle;spacingLeft=4;spacingRight=4;overflow=hidden;points=[[0,0.5],[1,0.5]];portConstraint=eastwest;rotatable=0;whiteSpace=wrap;html=1;" vertex="1" parent="7nFrm3i6Shsvs_v0Jg4z-56">
          <mxGeometry y="60" width="200" height="30" as="geometry" />
        </mxCell>
        <mxCell id="7nFrm3i6Shsvs_v0Jg4z-59" value="Mesa" style="swimlane;fontStyle=0;childLayout=stackLayout;horizontal=1;startSize=30;horizontalStack=0;resizeParent=1;resizeParentMax=0;resizeLast=0;collapsible=1;marginBottom=0;whiteSpace=wrap;html=1;" vertex="1" parent="1">
          <mxGeometry x="-800" y="120" width="200" height="90" as="geometry" />
        </mxCell>
        <mxCell id="7nFrm3i6Shsvs_v0Jg4z-60" value="IdMesa" style="text;strokeColor=none;fillColor=none;align=left;verticalAlign=middle;spacingLeft=4;spacingRight=4;overflow=hidden;points=[[0,0.5],[1,0.5]];portConstraint=eastwest;rotatable=0;whiteSpace=wrap;html=1;" vertex="1" parent="7nFrm3i6Shsvs_v0Jg4z-59">
          <mxGeometry y="30" width="200" height="30" as="geometry" />
        </mxCell>
        <mxCell id="7nFrm3i6Shsvs_v0Jg4z-61" value="Codigo" style="text;strokeColor=none;fillColor=none;align=left;verticalAlign=middle;spacingLeft=4;spacingRight=4;overflow=hidden;points=[[0,0.5],[1,0.5]];portConstraint=eastwest;rotatable=0;whiteSpace=wrap;html=1;" vertex="1" parent="7nFrm3i6Shsvs_v0Jg4z-59">
          <mxGeometry y="60" width="200" height="30" as="geometry" />
        </mxCell>
        <mxCell id="7nFrm3i6Shsvs_v0Jg4z-70" value="Departamento_x_Municipio" style="shape=table;startSize=30;container=1;collapsible=1;childLayout=tableLayout;fixedRows=1;rowLines=0;fontStyle=1;align=center;resizeLast=1;html=1;whiteSpace=wrap;" vertex="1" parent="1">
          <mxGeometry x="-480" y="270" width="200" height="130" as="geometry" />
        </mxCell>
        <mxCell id="7nFrm3i6Shsvs_v0Jg4z-71" value="" style="shape=tableRow;horizontal=0;startSize=0;swimlaneHead=0;swimlaneBody=0;fillColor=none;collapsible=0;dropTarget=0;points=[[0,0.5],[1,0.5]];portConstraint=eastwest;top=0;left=0;right=0;bottom=0;html=1;" vertex="1" parent="7nFrm3i6Shsvs_v0Jg4z-70">
          <mxGeometry y="30" width="200" height="30" as="geometry" />
        </mxCell>
        <mxCell id="7nFrm3i6Shsvs_v0Jg4z-72" value="PK" style="shape=partialRectangle;connectable=0;fillColor=none;top=0;left=0;bottom=0;right=0;fontStyle=1;overflow=hidden;html=1;whiteSpace=wrap;" vertex="1" parent="7nFrm3i6Shsvs_v0Jg4z-71">
          <mxGeometry width="60" height="30" as="geometry">
            <mxRectangle width="60" height="30" as="alternateBounds" />
          </mxGeometry>
        </mxCell>
        <mxCell id="7nFrm3i6Shsvs_v0Jg4z-73" value="IdRegion" style="shape=partialRectangle;connectable=0;fillColor=none;top=0;left=0;bottom=0;right=0;align=left;spacingLeft=6;fontStyle=5;overflow=hidden;html=1;whiteSpace=wrap;" vertex="1" parent="7nFrm3i6Shsvs_v0Jg4z-71">
          <mxGeometry x="60" width="140" height="30" as="geometry">
            <mxRectangle width="140" height="30" as="alternateBounds" />
          </mxGeometry>
        </mxCell>
        <mxCell id="7nFrm3i6Shsvs_v0Jg4z-74" value="" style="shape=tableRow;horizontal=0;startSize=0;swimlaneHead=0;swimlaneBody=0;fillColor=none;collapsible=0;dropTarget=0;points=[[0,0.5],[1,0.5]];portConstraint=eastwest;top=0;left=0;right=0;bottom=0;html=1;" vertex="1" parent="7nFrm3i6Shsvs_v0Jg4z-70">
          <mxGeometry y="60" width="200" height="30" as="geometry" />
        </mxCell>
        <mxCell id="7nFrm3i6Shsvs_v0Jg4z-75" value="FK" style="shape=partialRectangle;connectable=0;fillColor=none;top=0;left=0;bottom=0;right=0;fontStyle=1;overflow=hidden;html=1;whiteSpace=wrap;" vertex="1" parent="7nFrm3i6Shsvs_v0Jg4z-74">
          <mxGeometry width="60" height="30" as="geometry">
            <mxRectangle width="60" height="30" as="alternateBounds" />
          </mxGeometry>
        </mxCell>
        <mxCell id="7nFrm3i6Shsvs_v0Jg4z-76" value="IdDepartamento" style="shape=partialRectangle;connectable=0;fillColor=none;top=0;left=0;bottom=0;right=0;align=left;spacingLeft=6;fontStyle=5;overflow=hidden;html=1;whiteSpace=wrap;" vertex="1" parent="7nFrm3i6Shsvs_v0Jg4z-74">
          <mxGeometry x="60" width="140" height="30" as="geometry">
            <mxRectangle width="140" height="30" as="alternateBounds" />
          </mxGeometry>
        </mxCell>
        <mxCell id="7nFrm3i6Shsvs_v0Jg4z-77" value="" style="shape=tableRow;horizontal=0;startSize=0;swimlaneHead=0;swimlaneBody=0;fillColor=none;collapsible=0;dropTarget=0;points=[[0,0.5],[1,0.5]];portConstraint=eastwest;top=0;left=0;right=0;bottom=1;html=1;" vertex="1" parent="7nFrm3i6Shsvs_v0Jg4z-70">
          <mxGeometry y="90" width="200" height="30" as="geometry" />
        </mxCell>
        <mxCell id="7nFrm3i6Shsvs_v0Jg4z-78" value="FK" style="shape=partialRectangle;connectable=0;fillColor=none;top=0;left=0;bottom=0;right=0;fontStyle=1;overflow=hidden;html=1;whiteSpace=wrap;" vertex="1" parent="7nFrm3i6Shsvs_v0Jg4z-77">
          <mxGeometry width="60" height="30" as="geometry">
            <mxRectangle width="60" height="30" as="alternateBounds" />
          </mxGeometry>
        </mxCell>
        <mxCell id="7nFrm3i6Shsvs_v0Jg4z-79" value="IdMunicipio" style="shape=partialRectangle;connectable=0;fillColor=none;top=0;left=0;bottom=0;right=0;align=left;spacingLeft=6;fontStyle=5;overflow=hidden;html=1;whiteSpace=wrap;" vertex="1" parent="7nFrm3i6Shsvs_v0Jg4z-77">
          <mxGeometry x="60" width="140" height="30" as="geometry">
            <mxRectangle width="140" height="30" as="alternateBounds" />
          </mxGeometry>
        </mxCell>
        <mxCell id="7nFrm3i6Shsvs_v0Jg4z-82" value="Mesa_x_Region" style="shape=table;startSize=30;container=1;collapsible=1;childLayout=tableLayout;fixedRows=1;rowLines=0;fontStyle=1;align=center;resizeLast=1;html=1;whiteSpace=wrap;" vertex="1" parent="1">
          <mxGeometry x="-400" y="110" width="200" height="130" as="geometry" />
        </mxCell>
        <mxCell id="7nFrm3i6Shsvs_v0Jg4z-83" value="" style="shape=tableRow;horizontal=0;startSize=0;swimlaneHead=0;swimlaneBody=0;fillColor=none;collapsible=0;dropTarget=0;points=[[0,0.5],[1,0.5]];portConstraint=eastwest;top=0;left=0;right=0;bottom=0;html=1;" vertex="1" parent="7nFrm3i6Shsvs_v0Jg4z-82">
          <mxGeometry y="30" width="200" height="30" as="geometry" />
        </mxCell>
        <mxCell id="7nFrm3i6Shsvs_v0Jg4z-84" value="PK" style="shape=partialRectangle;connectable=0;fillColor=none;top=0;left=0;bottom=0;right=0;fontStyle=1;overflow=hidden;html=1;whiteSpace=wrap;" vertex="1" parent="7nFrm3i6Shsvs_v0Jg4z-83">
          <mxGeometry width="60" height="30" as="geometry">
            <mxRectangle width="60" height="30" as="alternateBounds" />
          </mxGeometry>
        </mxCell>
        <mxCell id="7nFrm3i6Shsvs_v0Jg4z-85" value="IdMesaRegion" style="shape=partialRectangle;connectable=0;fillColor=none;top=0;left=0;bottom=0;right=0;align=left;spacingLeft=6;fontStyle=5;overflow=hidden;html=1;whiteSpace=wrap;" vertex="1" parent="7nFrm3i6Shsvs_v0Jg4z-83">
          <mxGeometry x="60" width="140" height="30" as="geometry">
            <mxRectangle width="140" height="30" as="alternateBounds" />
          </mxGeometry>
        </mxCell>
        <mxCell id="7nFrm3i6Shsvs_v0Jg4z-86" value="" style="shape=tableRow;horizontal=0;startSize=0;swimlaneHead=0;swimlaneBody=0;fillColor=none;collapsible=0;dropTarget=0;points=[[0,0.5],[1,0.5]];portConstraint=eastwest;top=0;left=0;right=0;bottom=0;html=1;" vertex="1" parent="7nFrm3i6Shsvs_v0Jg4z-82">
          <mxGeometry y="60" width="200" height="30" as="geometry" />
        </mxCell>
        <mxCell id="7nFrm3i6Shsvs_v0Jg4z-87" value="FK" style="shape=partialRectangle;connectable=0;fillColor=none;top=0;left=0;bottom=0;right=0;fontStyle=1;overflow=hidden;html=1;whiteSpace=wrap;" vertex="1" parent="7nFrm3i6Shsvs_v0Jg4z-86">
          <mxGeometry width="60" height="30" as="geometry">
            <mxRectangle width="60" height="30" as="alternateBounds" />
          </mxGeometry>
        </mxCell>
        <mxCell id="7nFrm3i6Shsvs_v0Jg4z-88" value="IdMesa" style="shape=partialRectangle;connectable=0;fillColor=none;top=0;left=0;bottom=0;right=0;align=left;spacingLeft=6;fontStyle=5;overflow=hidden;html=1;whiteSpace=wrap;" vertex="1" parent="7nFrm3i6Shsvs_v0Jg4z-86">
          <mxGeometry x="60" width="140" height="30" as="geometry">
            <mxRectangle width="140" height="30" as="alternateBounds" />
          </mxGeometry>
        </mxCell>
        <mxCell id="7nFrm3i6Shsvs_v0Jg4z-89" value="" style="shape=tableRow;horizontal=0;startSize=0;swimlaneHead=0;swimlaneBody=0;fillColor=none;collapsible=0;dropTarget=0;points=[[0,0.5],[1,0.5]];portConstraint=eastwest;top=0;left=0;right=0;bottom=1;html=1;" vertex="1" parent="7nFrm3i6Shsvs_v0Jg4z-82">
          <mxGeometry y="90" width="200" height="30" as="geometry" />
        </mxCell>
        <mxCell id="7nFrm3i6Shsvs_v0Jg4z-90" value="FK" style="shape=partialRectangle;connectable=0;fillColor=none;top=0;left=0;bottom=0;right=0;fontStyle=1;overflow=hidden;html=1;whiteSpace=wrap;" vertex="1" parent="7nFrm3i6Shsvs_v0Jg4z-89">
          <mxGeometry width="60" height="30" as="geometry">
            <mxRectangle width="60" height="30" as="alternateBounds" />
          </mxGeometry>
        </mxCell>
        <mxCell id="7nFrm3i6Shsvs_v0Jg4z-91" value="IdRegion" style="shape=partialRectangle;connectable=0;fillColor=none;top=0;left=0;bottom=0;right=0;align=left;spacingLeft=6;fontStyle=5;overflow=hidden;html=1;whiteSpace=wrap;" vertex="1" parent="7nFrm3i6Shsvs_v0Jg4z-89">
          <mxGeometry x="60" width="140" height="30" as="geometry">
            <mxRectangle width="140" height="30" as="alternateBounds" />
          </mxGeometry>
        </mxCell>
        <mxCell id="7nFrm3i6Shsvs_v0Jg4z-107" value="Votos" style="shape=table;startSize=30;container=1;collapsible=1;childLayout=tableLayout;fixedRows=1;rowLines=0;fontStyle=1;align=center;resizeLast=1;html=1;whiteSpace=wrap;" vertex="1" parent="1">
          <mxGeometry x="-40" y="-60" width="200" height="120" as="geometry" />
        </mxCell>
        <mxCell id="7nFrm3i6Shsvs_v0Jg4z-108" value="" style="shape=tableRow;horizontal=0;startSize=0;swimlaneHead=0;swimlaneBody=0;fillColor=none;collapsible=0;dropTarget=0;points=[[0,0.5],[1,0.5]];portConstraint=eastwest;top=0;left=0;right=0;bottom=0;html=1;" vertex="1" parent="7nFrm3i6Shsvs_v0Jg4z-107">
          <mxGeometry y="30" width="200" height="30" as="geometry" />
        </mxCell>
        <mxCell id="7nFrm3i6Shsvs_v0Jg4z-109" value="PK,FK1" style="shape=partialRectangle;connectable=0;fillColor=none;top=0;left=0;bottom=0;right=0;fontStyle=1;overflow=hidden;html=1;whiteSpace=wrap;" vertex="1" parent="7nFrm3i6Shsvs_v0Jg4z-108">
          <mxGeometry width="60" height="30" as="geometry">
            <mxRectangle width="60" height="30" as="alternateBounds" />
          </mxGeometry>
        </mxCell>
        <mxCell id="7nFrm3i6Shsvs_v0Jg4z-110" value="IdCandidatoPartido" style="shape=partialRectangle;connectable=0;fillColor=none;top=0;left=0;bottom=0;right=0;align=left;spacingLeft=6;fontStyle=5;overflow=hidden;html=1;whiteSpace=wrap;" vertex="1" parent="7nFrm3i6Shsvs_v0Jg4z-108">
          <mxGeometry x="60" width="140" height="30" as="geometry">
            <mxRectangle width="140" height="30" as="alternateBounds" />
          </mxGeometry>
        </mxCell>
        <mxCell id="7nFrm3i6Shsvs_v0Jg4z-111" value="" style="shape=tableRow;horizontal=0;startSize=0;swimlaneHead=0;swimlaneBody=0;fillColor=none;collapsible=0;dropTarget=0;points=[[0,0.5],[1,0.5]];portConstraint=eastwest;top=0;left=0;right=0;bottom=1;html=1;" vertex="1" parent="7nFrm3i6Shsvs_v0Jg4z-107">
          <mxGeometry y="60" width="200" height="30" as="geometry" />
        </mxCell>
        <mxCell id="7nFrm3i6Shsvs_v0Jg4z-112" value="PK,FK2" style="shape=partialRectangle;connectable=0;fillColor=none;top=0;left=0;bottom=0;right=0;fontStyle=1;overflow=hidden;html=1;whiteSpace=wrap;" vertex="1" parent="7nFrm3i6Shsvs_v0Jg4z-111">
          <mxGeometry width="60" height="30" as="geometry">
            <mxRectangle width="60" height="30" as="alternateBounds" />
          </mxGeometry>
        </mxCell>
        <mxCell id="7nFrm3i6Shsvs_v0Jg4z-113" value="IdMesaRegion" style="shape=partialRectangle;connectable=0;fillColor=none;top=0;left=0;bottom=0;right=0;align=left;spacingLeft=6;fontStyle=5;overflow=hidden;html=1;whiteSpace=wrap;" vertex="1" parent="7nFrm3i6Shsvs_v0Jg4z-111">
          <mxGeometry x="60" width="140" height="30" as="geometry">
            <mxRectangle width="140" height="30" as="alternateBounds" />
          </mxGeometry>
        </mxCell>
        <mxCell id="7nFrm3i6Shsvs_v0Jg4z-114" value="" style="shape=tableRow;horizontal=0;startSize=0;swimlaneHead=0;swimlaneBody=0;fillColor=none;collapsible=0;dropTarget=0;points=[[0,0.5],[1,0.5]];portConstraint=eastwest;top=0;left=0;right=0;bottom=0;html=1;" vertex="1" parent="7nFrm3i6Shsvs_v0Jg4z-107">
          <mxGeometry y="90" width="200" height="30" as="geometry" />
        </mxCell>
        <mxCell id="7nFrm3i6Shsvs_v0Jg4z-115" value="" style="shape=partialRectangle;connectable=0;fillColor=none;top=0;left=0;bottom=0;right=0;editable=1;overflow=hidden;html=1;whiteSpace=wrap;" vertex="1" parent="7nFrm3i6Shsvs_v0Jg4z-114">
          <mxGeometry width="60" height="30" as="geometry">
            <mxRectangle width="60" height="30" as="alternateBounds" />
          </mxGeometry>
        </mxCell>
        <mxCell id="7nFrm3i6Shsvs_v0Jg4z-116" value="NumeroVotos" style="shape=partialRectangle;connectable=0;fillColor=none;top=0;left=0;bottom=0;right=0;align=left;spacingLeft=6;overflow=hidden;html=1;whiteSpace=wrap;" vertex="1" parent="7nFrm3i6Shsvs_v0Jg4z-114">
          <mxGeometry x="60" width="140" height="30" as="geometry">
            <mxRectangle width="140" height="30" as="alternateBounds" />
          </mxGeometry>
        </mxCell>
        <mxCell id="7nFrm3i6Shsvs_v0Jg4z-132" style="edgeStyle=orthogonalEdgeStyle;rounded=0;orthogonalLoop=1;jettySize=auto;html=1;exitX=1;exitY=1;exitDx=0;exitDy=0;" edge="1" parent="1" source="7nFrm3i6Shsvs_v0Jg4z-122" target="7nFrm3i6Shsvs_v0Jg4z-126">
          <mxGeometry relative="1" as="geometry" />
        </mxCell>
        <mxCell id="7nFrm3i6Shsvs_v0Jg4z-133" style="edgeStyle=orthogonalEdgeStyle;rounded=0;orthogonalLoop=1;jettySize=auto;html=1;exitX=0;exitY=1;exitDx=0;exitDy=0;" edge="1" parent="1" source="7nFrm3i6Shsvs_v0Jg4z-122" target="7nFrm3i6Shsvs_v0Jg4z-125">
          <mxGeometry relative="1" as="geometry" />
        </mxCell>
        <mxCell id="7nFrm3i6Shsvs_v0Jg4z-122" value="IdVoto&lt;br&gt;11" style="ellipse;whiteSpace=wrap;html=1;aspect=fixed;" vertex="1" parent="1">
          <mxGeometry x="120" y="560" width="80" height="80" as="geometry" />
        </mxCell>
        <mxCell id="7nFrm3i6Shsvs_v0Jg4z-136" style="edgeStyle=orthogonalEdgeStyle;rounded=0;orthogonalLoop=1;jettySize=auto;html=1;exitX=0;exitY=1;exitDx=0;exitDy=0;entryX=0.5;entryY=0;entryDx=0;entryDy=0;" edge="1" parent="1" source="7nFrm3i6Shsvs_v0Jg4z-125" target="7nFrm3i6Shsvs_v0Jg4z-135">
          <mxGeometry relative="1" as="geometry" />
        </mxCell>
        <mxCell id="7nFrm3i6Shsvs_v0Jg4z-137" style="edgeStyle=orthogonalEdgeStyle;rounded=0;orthogonalLoop=1;jettySize=auto;html=1;exitX=1;exitY=1;exitDx=0;exitDy=0;entryX=0.5;entryY=0;entryDx=0;entryDy=0;" edge="1" parent="1" source="7nFrm3i6Shsvs_v0Jg4z-125" target="7nFrm3i6Shsvs_v0Jg4z-134">
          <mxGeometry relative="1" as="geometry" />
        </mxCell>
        <mxCell id="7nFrm3i6Shsvs_v0Jg4z-125" value="IdCandidatoPartido&lt;br&gt;21" style="ellipse;whiteSpace=wrap;html=1;aspect=fixed;" vertex="1" parent="1">
          <mxGeometry x="-160" y="680" width="80" height="80" as="geometry" />
        </mxCell>
        <mxCell id="7nFrm3i6Shsvs_v0Jg4z-144" style="edgeStyle=orthogonalEdgeStyle;rounded=0;orthogonalLoop=1;jettySize=auto;html=1;exitX=1;exitY=1;exitDx=0;exitDy=0;" edge="1" parent="1" source="7nFrm3i6Shsvs_v0Jg4z-126" target="7nFrm3i6Shsvs_v0Jg4z-143">
          <mxGeometry relative="1" as="geometry" />
        </mxCell>
        <mxCell id="7nFrm3i6Shsvs_v0Jg4z-145" style="edgeStyle=orthogonalEdgeStyle;rounded=0;orthogonalLoop=1;jettySize=auto;html=1;exitX=0;exitY=1;exitDx=0;exitDy=0;entryX=0.5;entryY=0;entryDx=0;entryDy=0;" edge="1" parent="1" source="7nFrm3i6Shsvs_v0Jg4z-126" target="7nFrm3i6Shsvs_v0Jg4z-142">
          <mxGeometry relative="1" as="geometry" />
        </mxCell>
        <mxCell id="7nFrm3i6Shsvs_v0Jg4z-126" value="IdMesaRegion&lt;br&gt;24" style="ellipse;whiteSpace=wrap;html=1;aspect=fixed;" vertex="1" parent="1">
          <mxGeometry x="440" y="680" width="80" height="80" as="geometry" />
        </mxCell>
        <mxCell id="7nFrm3i6Shsvs_v0Jg4z-140" style="edgeStyle=orthogonalEdgeStyle;rounded=0;orthogonalLoop=1;jettySize=auto;html=1;exitX=1;exitY=1;exitDx=0;exitDy=0;entryX=0.5;entryY=0;entryDx=0;entryDy=0;" edge="1" parent="1" source="7nFrm3i6Shsvs_v0Jg4z-134" target="7nFrm3i6Shsvs_v0Jg4z-138">
          <mxGeometry relative="1" as="geometry" />
        </mxCell>
        <mxCell id="7nFrm3i6Shsvs_v0Jg4z-141" style="edgeStyle=orthogonalEdgeStyle;rounded=0;orthogonalLoop=1;jettySize=auto;html=1;exitX=0;exitY=1;exitDx=0;exitDy=0;entryX=0.5;entryY=0;entryDx=0;entryDy=0;" edge="1" parent="1" source="7nFrm3i6Shsvs_v0Jg4z-134" target="7nFrm3i6Shsvs_v0Jg4z-139">
          <mxGeometry relative="1" as="geometry" />
        </mxCell>
        <mxCell id="7nFrm3i6Shsvs_v0Jg4z-134" value="IdCandidatoPuesto&lt;br&gt;52" style="ellipse;whiteSpace=wrap;html=1;aspect=fixed;" vertex="1" parent="1">
          <mxGeometry x="-40" y="800" width="80" height="80" as="geometry" />
        </mxCell>
        <mxCell id="7nFrm3i6Shsvs_v0Jg4z-135" value="IdPartido&lt;br&gt;3" style="ellipse;whiteSpace=wrap;html=1;aspect=fixed;" vertex="1" parent="1">
          <mxGeometry x="-280" y="800" width="80" height="80" as="geometry" />
        </mxCell>
        <mxCell id="7nFrm3i6Shsvs_v0Jg4z-138" value="IdPuesto&lt;br&gt;1" style="ellipse;whiteSpace=wrap;html=1;aspect=fixed;" vertex="1" parent="1">
          <mxGeometry x="80" y="920" width="80" height="80" as="geometry" />
        </mxCell>
        <mxCell id="7nFrm3i6Shsvs_v0Jg4z-139" value="IdCandidato&lt;br&gt;70" style="ellipse;whiteSpace=wrap;html=1;aspect=fixed;" vertex="1" parent="1">
          <mxGeometry x="-160" y="920" width="80" height="80" as="geometry" />
        </mxCell>
        <mxCell id="7nFrm3i6Shsvs_v0Jg4z-142" value="IdMesa&lt;br&gt;37" style="ellipse;whiteSpace=wrap;html=1;aspect=fixed;" vertex="1" parent="1">
          <mxGeometry x="320" y="800" width="80" height="80" as="geometry" />
        </mxCell>
        <mxCell id="7nFrm3i6Shsvs_v0Jg4z-148" style="edgeStyle=orthogonalEdgeStyle;rounded=0;orthogonalLoop=1;jettySize=auto;html=1;exitX=1;exitY=1;exitDx=0;exitDy=0;entryX=0.5;entryY=0;entryDx=0;entryDy=0;" edge="1" parent="1" source="7nFrm3i6Shsvs_v0Jg4z-143" target="7nFrm3i6Shsvs_v0Jg4z-146">
          <mxGeometry relative="1" as="geometry" />
        </mxCell>
        <mxCell id="7nFrm3i6Shsvs_v0Jg4z-149" style="edgeStyle=orthogonalEdgeStyle;rounded=0;orthogonalLoop=1;jettySize=auto;html=1;exitX=0;exitY=1;exitDx=0;exitDy=0;entryX=0.5;entryY=0;entryDx=0;entryDy=0;" edge="1" parent="1" source="7nFrm3i6Shsvs_v0Jg4z-143" target="7nFrm3i6Shsvs_v0Jg4z-147">
          <mxGeometry relative="1" as="geometry" />
        </mxCell>
        <mxCell id="7nFrm3i6Shsvs_v0Jg4z-143" value="IdRegion&lt;br&gt;69" style="ellipse;whiteSpace=wrap;html=1;aspect=fixed;" vertex="1" parent="1">
          <mxGeometry x="560" y="800" width="80" height="80" as="geometry" />
        </mxCell>
        <mxCell id="7nFrm3i6Shsvs_v0Jg4z-146" value="IdMunicipio&lt;br&gt;73" style="ellipse;whiteSpace=wrap;html=1;aspect=fixed;" vertex="1" parent="1">
          <mxGeometry x="680" y="920" width="80" height="80" as="geometry" />
        </mxCell>
        <mxCell id="7nFrm3i6Shsvs_v0Jg4z-147" value="IdDepartamento&lt;br&gt;22" style="ellipse;whiteSpace=wrap;html=1;aspect=fixed;" vertex="1" parent="1">
          <mxGeometry x="440" y="920" width="80" height="80" as="geometry" />
        </mxCell>
        <mxCell id="7nFrm3i6Shsvs_v0Jg4z-150" value="Candidatos" style="swimlane;fontStyle=0;childLayout=stackLayout;horizontal=1;startSize=30;horizontalStack=0;resizeParent=1;resizeParentMax=0;resizeLast=0;collapsible=1;marginBottom=0;whiteSpace=wrap;html=1;" vertex="1" parent="1">
          <mxGeometry x="-800" y="-200" width="200" height="120" as="geometry" />
        </mxCell>
        <mxCell id="7nFrm3i6Shsvs_v0Jg4z-151" value="IdCandidato" style="text;strokeColor=none;fillColor=none;align=left;verticalAlign=middle;spacingLeft=4;spacingRight=4;overflow=hidden;points=[[0,0.5],[1,0.5]];portConstraint=eastwest;rotatable=0;whiteSpace=wrap;html=1;" vertex="1" parent="7nFrm3i6Shsvs_v0Jg4z-150">
          <mxGeometry y="30" width="200" height="30" as="geometry" />
        </mxCell>
        <mxCell id="7nFrm3i6Shsvs_v0Jg4z-152" value="Nombres" style="text;strokeColor=none;fillColor=none;align=left;verticalAlign=middle;spacingLeft=4;spacingRight=4;overflow=hidden;points=[[0,0.5],[1,0.5]];portConstraint=eastwest;rotatable=0;whiteSpace=wrap;html=1;" vertex="1" parent="7nFrm3i6Shsvs_v0Jg4z-150">
          <mxGeometry y="60" width="200" height="30" as="geometry" />
        </mxCell>
        <mxCell id="7nFrm3i6Shsvs_v0Jg4z-153" value="Apellidos" style="text;strokeColor=none;fillColor=none;align=left;verticalAlign=middle;spacingLeft=4;spacingRight=4;overflow=hidden;points=[[0,0.5],[1,0.5]];portConstraint=eastwest;rotatable=0;whiteSpace=wrap;html=1;" vertex="1" parent="7nFrm3i6Shsvs_v0Jg4z-150">
          <mxGeometry y="90" width="200" height="30" as="geometry" />
        </mxCell>
        <mxCell id="7nFrm3i6Shsvs_v0Jg4z-154" value="Puesto" style="swimlane;fontStyle=0;childLayout=stackLayout;horizontal=1;startSize=30;horizontalStack=0;resizeParent=1;resizeParentMax=0;resizeLast=0;collapsible=1;marginBottom=0;whiteSpace=wrap;html=1;" vertex="1" parent="1">
          <mxGeometry x="-800" y="-40" width="200" height="120" as="geometry" />
        </mxCell>
        <mxCell id="7nFrm3i6Shsvs_v0Jg4z-155" value="IdPuesto" style="text;strokeColor=none;fillColor=none;align=left;verticalAlign=middle;spacingLeft=4;spacingRight=4;overflow=hidden;points=[[0,0.5],[1,0.5]];portConstraint=eastwest;rotatable=0;whiteSpace=wrap;html=1;" vertex="1" parent="7nFrm3i6Shsvs_v0Jg4z-154">
          <mxGeometry y="30" width="200" height="30" as="geometry" />
        </mxCell>
        <mxCell id="7nFrm3i6Shsvs_v0Jg4z-156" value="Nombre" style="text;strokeColor=none;fillColor=none;align=left;verticalAlign=middle;spacingLeft=4;spacingRight=4;overflow=hidden;points=[[0,0.5],[1,0.5]];portConstraint=eastwest;rotatable=0;whiteSpace=wrap;html=1;" vertex="1" parent="7nFrm3i6Shsvs_v0Jg4z-154">
          <mxGeometry y="60" width="200" height="30" as="geometry" />
        </mxCell>
        <mxCell id="7nFrm3i6Shsvs_v0Jg4z-157" value="Nivel" style="text;strokeColor=none;fillColor=none;align=left;verticalAlign=middle;spacingLeft=4;spacingRight=4;overflow=hidden;points=[[0,0.5],[1,0.5]];portConstraint=eastwest;rotatable=0;whiteSpace=wrap;html=1;" vertex="1" parent="7nFrm3i6Shsvs_v0Jg4z-154">
          <mxGeometry y="90" width="200" height="30" as="geometry" />
        </mxCell>
        <mxCell id="7nFrm3i6Shsvs_v0Jg4z-158" value="Partido" style="swimlane;fontStyle=0;childLayout=stackLayout;horizontal=1;startSize=30;horizontalStack=0;resizeParent=1;resizeParentMax=0;resizeLast=0;collapsible=1;marginBottom=0;whiteSpace=wrap;html=1;" vertex="1" parent="1">
          <mxGeometry x="-800" y="-330" width="200" height="90" as="geometry" />
        </mxCell>
        <mxCell id="7nFrm3i6Shsvs_v0Jg4z-159" value="IdPartido" style="text;strokeColor=none;fillColor=none;align=left;verticalAlign=middle;spacingLeft=4;spacingRight=4;overflow=hidden;points=[[0,0.5],[1,0.5]];portConstraint=eastwest;rotatable=0;whiteSpace=wrap;html=1;" vertex="1" parent="7nFrm3i6Shsvs_v0Jg4z-158">
          <mxGeometry y="30" width="200" height="30" as="geometry" />
        </mxCell>
        <mxCell id="7nFrm3i6Shsvs_v0Jg4z-160" value="Nombre" style="text;strokeColor=none;fillColor=none;align=left;verticalAlign=middle;spacingLeft=4;spacingRight=4;overflow=hidden;points=[[0,0.5],[1,0.5]];portConstraint=eastwest;rotatable=0;whiteSpace=wrap;html=1;" vertex="1" parent="7nFrm3i6Shsvs_v0Jg4z-158">
          <mxGeometry y="60" width="200" height="30" as="geometry" />
        </mxCell>
        <mxCell id="7nFrm3i6Shsvs_v0Jg4z-163" style="edgeStyle=orthogonalEdgeStyle;rounded=0;orthogonalLoop=1;jettySize=auto;html=1;exitX=1;exitY=0.5;exitDx=0;exitDy=0;" edge="1" parent="1" source="7nFrm3i6Shsvs_v0Jg4z-159" target="7nFrm3i6Shsvs_v0Jg4z-37">
          <mxGeometry relative="1" as="geometry" />
        </mxCell>
        <mxCell id="7nFrm3i6Shsvs_v0Jg4z-164" style="edgeStyle=orthogonalEdgeStyle;rounded=0;orthogonalLoop=1;jettySize=auto;html=1;exitX=1;exitY=0.5;exitDx=0;exitDy=0;entryX=0;entryY=0.5;entryDx=0;entryDy=0;" edge="1" parent="1" source="7nFrm3i6Shsvs_v0Jg4z-151" target="7nFrm3i6Shsvs_v0Jg4z-24">
          <mxGeometry relative="1" as="geometry" />
        </mxCell>
        <mxCell id="7nFrm3i6Shsvs_v0Jg4z-165" style="edgeStyle=orthogonalEdgeStyle;rounded=0;orthogonalLoop=1;jettySize=auto;html=1;exitX=1;exitY=0.5;exitDx=0;exitDy=0;" edge="1" parent="1" source="7nFrm3i6Shsvs_v0Jg4z-155" target="7nFrm3i6Shsvs_v0Jg4z-21">
          <mxGeometry relative="1" as="geometry" />
        </mxCell>
        <mxCell id="7nFrm3i6Shsvs_v0Jg4z-166" style="edgeStyle=orthogonalEdgeStyle;rounded=0;orthogonalLoop=1;jettySize=auto;html=1;exitX=0;exitY=0.5;exitDx=0;exitDy=0;entryX=0;entryY=0.5;entryDx=0;entryDy=0;" edge="1" parent="1" source="7nFrm3i6Shsvs_v0Jg4z-43" target="7nFrm3i6Shsvs_v0Jg4z-40">
          <mxGeometry relative="1" as="geometry" />
        </mxCell>
        <mxCell id="7nFrm3i6Shsvs_v0Jg4z-167" style="edgeStyle=orthogonalEdgeStyle;rounded=0;orthogonalLoop=1;jettySize=auto;html=1;exitX=1;exitY=0.5;exitDx=0;exitDy=0;entryX=0;entryY=0.5;entryDx=0;entryDy=0;" edge="1" parent="1" source="7nFrm3i6Shsvs_v0Jg4z-53" target="7nFrm3i6Shsvs_v0Jg4z-74">
          <mxGeometry relative="1" as="geometry" />
        </mxCell>
        <mxCell id="7nFrm3i6Shsvs_v0Jg4z-168" style="edgeStyle=orthogonalEdgeStyle;rounded=0;orthogonalLoop=1;jettySize=auto;html=1;exitX=1;exitY=0.5;exitDx=0;exitDy=0;entryX=0;entryY=0.5;entryDx=0;entryDy=0;" edge="1" parent="1" source="7nFrm3i6Shsvs_v0Jg4z-57" target="7nFrm3i6Shsvs_v0Jg4z-77">
          <mxGeometry relative="1" as="geometry" />
        </mxCell>
        <mxCell id="7nFrm3i6Shsvs_v0Jg4z-170" style="edgeStyle=orthogonalEdgeStyle;rounded=0;orthogonalLoop=1;jettySize=auto;html=1;exitX=0;exitY=0.5;exitDx=0;exitDy=0;entryX=0;entryY=0.5;entryDx=0;entryDy=0;" edge="1" parent="1" source="7nFrm3i6Shsvs_v0Jg4z-71" target="7nFrm3i6Shsvs_v0Jg4z-89">
          <mxGeometry relative="1" as="geometry" />
        </mxCell>
        <mxCell id="7nFrm3i6Shsvs_v0Jg4z-171" style="edgeStyle=orthogonalEdgeStyle;rounded=0;orthogonalLoop=1;jettySize=auto;html=1;exitX=1;exitY=0.5;exitDx=0;exitDy=0;entryX=0;entryY=0.5;entryDx=0;entryDy=0;" edge="1" parent="1" source="7nFrm3i6Shsvs_v0Jg4z-60" target="7nFrm3i6Shsvs_v0Jg4z-86">
          <mxGeometry relative="1" as="geometry" />
        </mxCell>
        <mxCell id="7nFrm3i6Shsvs_v0Jg4z-175" style="edgeStyle=orthogonalEdgeStyle;rounded=0;orthogonalLoop=1;jettySize=auto;html=1;exitX=1;exitY=0.5;exitDx=0;exitDy=0;entryX=0;entryY=0.5;entryDx=0;entryDy=0;" edge="1" parent="1" source="7nFrm3i6Shsvs_v0Jg4z-66" target="7nFrm3i6Shsvs_v0Jg4z-108">
          <mxGeometry relative="1" as="geometry" />
        </mxCell>
        <mxCell id="7nFrm3i6Shsvs_v0Jg4z-176" style="edgeStyle=orthogonalEdgeStyle;rounded=0;orthogonalLoop=1;jettySize=auto;html=1;exitX=1;exitY=0.5;exitDx=0;exitDy=0;entryX=0;entryY=0.5;entryDx=0;entryDy=0;" edge="1" parent="1" source="7nFrm3i6Shsvs_v0Jg4z-83" target="7nFrm3i6Shsvs_v0Jg4z-111">
          <mxGeometry relative="1" as="geometry" />
        </mxCell>
        <mxCell id="7nFrm3i6Shsvs_v0Jg4z-177" value="Preorden: [11,21,24,21,3,52,70,1,24,37,69,22,73]" style="shape=process;whiteSpace=wrap;html=1;backgroundOutline=1;size=0.038461538461538464;" vertex="1" parent="1">
          <mxGeometry x="-280" y="1080" width="1040" height="60" as="geometry" />
        </mxCell>
        <mxCell id="7nFrm3i6Shsvs_v0Jg4z-178" value="Inorden: [70,52,1,21,3,11,22,69,73,24,37,11]" style="shape=process;whiteSpace=wrap;html=1;backgroundOutline=1;size=0.038461538461538464;" vertex="1" parent="1">
          <mxGeometry x="-280" y="1160" width="1040" height="60" as="geometry" />
        </mxCell>
        <mxCell id="7nFrm3i6Shsvs_v0Jg4z-179" value="Postorden: [70,1,52,3,21,11,22,73,69,24,37,11]" style="shape=process;whiteSpace=wrap;html=1;backgroundOutline=1;size=0.038461538461538464;" vertex="1" parent="1">
          <mxGeometry x="-280" y="1250" width="1040" height="60" as="geometry" />
        </mxCell>
      </root>
    </mxGraphModel>
  </diagram>
</mxfile>
